HIERARCHY
ROOT Pelvis
{
	OFFSET 0.000000 0.000000 0.000000
	CHANNELS 6 Xposition Yposition Zposition Xrotation Yrotation Zrotation
	JOINT LeftUpLeg_virtual
	{
		OFFSET 0.000000 0.000000 0.000000
		CHANNELS 3 Xrotation Yrotation Zrotation
		JOINT LeftUpLeg
		{
			OFFSET 18.735201 -5.666702 -4.541200
			CHANNELS 3 Xrotation Yrotation Zrotation
			JOINT LeftLeg
			{
				OFFSET -0.021200 -31.938179 0.493100
				CHANNELS 3 Xrotation Yrotation Zrotation
				JOINT LeftFoot
				{
					OFFSET 0.021200 -31.938179 -4.336299
					CHANNELS 3 Xrotation Yrotation Zrotation
					JOINT LeftToeBase
					{
						OFFSET 0.943001 -26.722000 15.023500
						CHANNELS 3 Xrotation Yrotation Zrotation
						End Site
						{
							OFFSET 0 0 0
						}
					}
				}
			}
		}
	}
	JOINT RightUpLeg_virtual
	{
		OFFSET 0.000000 0.000000 0.000000
		CHANNELS 3 Xrotation Yrotation Zrotation
		JOINT RightUpLeg
		{
			OFFSET -18.735201 -5.666702 -4.541200
			CHANNELS 3 Xrotation Yrotation Zrotation
			JOINT RightLeg
			{
				OFFSET 0.018946 -31.938133 0.493100
				CHANNELS 3 Xrotation Yrotation Zrotation
				JOINT RightFoot
				{
					OFFSET -0.018946 -31.938126 -4.336299
					CHANNELS 3 Xrotation Yrotation Zrotation
					JOINT RightToeBase
					{
						OFFSET -0.943001 -26.722004 15.023500
						CHANNELS 3 Xrotation Yrotation Zrotation
						End Site
						{
							OFFSET 0 0 0
						}
					}
				}
			}
		}
	}
	JOINT Hips_virtual
	{
		OFFSET 0.000000 0.000000 0.000000
		CHANNELS 3 Xrotation Yrotation Zrotation
		JOINT Hips
		{
			OFFSET -0.000000 -0.000000 -0.000000
			CHANNELS 3 Xrotation Yrotation Zrotation
			JOINT Spine
			{
				OFFSET 0.000000 10.199997 -0.299500
				CHANNELS 3 Xrotation Yrotation Zrotation
				JOINT Spine1
				{
					OFFSET 0.000000 11.900002 -1.516600
					CHANNELS 3 Xrotation Yrotation Zrotation
					JOINT Spine2
					{
						OFFSET 0.000000 13.600006 -2.842500
						CHANNELS 3 Xrotation Yrotation Zrotation
						JOINT Neck_virtual
						{
							OFFSET 0.000000 0.000000 0.000000
							CHANNELS 3 Xrotation Yrotation Zrotation
							JOINT Neck
							{
								OFFSET 0.000000 9.624100 -2.890100
								CHANNELS 3 Xrotation Yrotation Zrotation
								JOINT Head
								{
									OFFSET 0.000000 14.068802 -1.351900
									CHANNELS 3 Xrotation Yrotation Zrotation
									End Site
									{
										OFFSET 0 0 0
									}
								}
							}
						}
						JOINT LeftShoulder_virtual
						{
							OFFSET 0.000000 0.000000 0.000000
							CHANNELS 3 Xrotation Yrotation Zrotation
							JOINT LeftShoulder
							{
								OFFSET 15.263000 10.923401 -0.547700
								CHANNELS 3 Xrotation Yrotation Zrotation
								JOINT LeftArm
								{
									OFFSET 25.438599 -2.830597 -13.032500
									CHANNELS 3 Xrotation Yrotation Zrotation
									JOINT LeftForeArm
									{
										OFFSET 29.960503 0.000000 0.000000
										CHANNELS 3 Xrotation Yrotation Zrotation
										JOINT LeftHand
										{
											OFFSET 27.849251 0.000000 0.000000
											CHANNELS 3 Xrotation Yrotation Zrotation
											End Site
											{
												OFFSET 0 0 0
											}
										}
									}
								}
							}
						}
						JOINT RightShoulder_virtual
						{
							OFFSET 0.000000 0.000000 0.000000
							CHANNELS 3 Xrotation Yrotation Zrotation
							JOINT RightShoulder
							{
								OFFSET -15.263000 10.923401 -0.547700
								CHANNELS 3 Xrotation Yrotation Zrotation
								JOINT RightArm
								{
									OFFSET -25.438599 -2.830597 -13.032500
									CHANNELS 3 Xrotation Yrotation Zrotation
									JOINT RightForeArm
									{
										OFFSET -29.960503 0.000000 0.000000
										CHANNELS 3 Xrotation Yrotation Zrotation
										JOINT RightHand
										{
											OFFSET -27.849251 0.000000 0.000000
											CHANNELS 3 Xrotation Yrotation Zrotation
											End Site
											{
												OFFSET 0 0 0
											}
										}
									}
								}
							}
						}
					}
				}
			}
		}
	}
}
MOTION
Frames: 5
Frame Time: 0.03333333
8.648751 88.647995 2.072636 0.000000 0.000000 0.000000 8.859162 -21.621505 0.313198 -30.724465 6.186702 14.808542 40.212233 5.617929 -2.244551 -11.299031 6.387302 -5.016146 0.000000 0.000000 0.000000 5.952772 -3.960078 0.282416 -22.682872 -6.049032 -14.957588 44.198670 -3.239839 -3.379616 -8.372549 -4.611871 3.550740 0.000000 0.000000 0.000000 11.432718 8.910213 -0.037867 -1.169554 -22.469557 2.011232 17.848486 5.935273 -2.507580 9.279235 3.714849 -1.919656 0.000000 0.000000 0.000000 3.566876 4.782071 -1.491722 -1.607372 -0.222943 0.911459 0.000000 0.000000 0.000000 -0.913323 6.654738 -1.882878 -1.554133 -4.936462 0.472966 -16.870514 10.010060 -56.929685 -9.002665 -38.076826 -8.622781 0.000000 0.000000 0.000000 3.408059 1.716852 -2.732334 0.724818 -5.331593 4.357511 41.469036 41.906202 23.153245 27.048555 53.491118 -6.477322 0.000000 0.000000 0.000000 
8.528237 88.998100 1.961624 0.000000 0.000000 0.000000 8.919077 -21.486213 0.279927 -30.684232 6.251261 14.797156 40.028085 5.635713 -2.110125 -11.353047 6.352875 -4.816676 0.000000 0.000000 0.000000 5.928669 -4.406774 0.131661 -22.746880 -6.127534 -15.175301 43.263808 -2.242026 -2.898352 -9.161489 -3.959941 5.079490 0.000000 0.000000 0.000000 11.495902 9.005076 -0.069165 -1.274729 -22.093980 1.619293 17.744065 5.921497 -2.409203 9.178508 3.701715 -1.836557 0.000000 0.000000 0.000000 3.413031 4.792605 -1.457480 -1.651488 -0.192556 0.881631 0.000000 0.000000 0.000000 -1.007877 6.615795 -1.793224 -1.609513 -4.989312 0.660075 -16.786090 10.038132 -56.411553 -8.735767 -37.616457 -8.416461 0.000000 0.000000 0.000000 3.216910 1.756812 -2.677097 0.597618 -4.968751 4.338604 38.534906 40.775908 25.801168 24.640626 51.530922 -4.342253 0.000000 0.000000 0.000000 
8.420498 89.382217 1.933184 0.000000 0.000000 0.000000 8.993892 -21.273707 0.237811 -30.601706 6.337797 14.775535 39.848577 5.677172 -2.020528 -11.388895 6.364563 -4.666072 0.000000 0.000000 0.000000 5.981390 -4.688591 0.017073 -22.699748 -6.185605 -15.337781 42.185048 -1.432373 -2.489696 -10.050831 -3.468568 6.324739 0.000000 0.000000 0.000000 11.514416 9.043534 -0.071638 -1.378800 -21.669706 1.316689 17.633318 5.924737 -2.299514 9.071590 3.700210 -1.745160 0.000000 0.000000 0.000000 3.233245 4.815290 -1.480450 -1.706904 -0.146132 0.813701 0.000000 0.000000 0.000000 -1.098397 6.585839 -1.697188 -1.663975 -4.968142 0.820336 -16.730502 10.101437 -55.967256 -8.501163 -37.124861 -8.260336 0.000000 0.000000 0.000000 3.129753 1.809591 -2.651370 0.574475 -4.514840 4.196565 36.703620 39.624144 27.486978 23.042176 49.691846 -2.993648 0.000000 0.000000 0.000000 
8.321481 89.694969 1.839401 0.000000 0.000000 0.000000 9.151365 -21.147755 0.217560 -30.428448 6.418850 14.751880 39.758224 5.700431 -1.951901 -11.365206 6.366651 -4.553469 0.000000 0.000000 0.000000 6.095567 -4.899563 0.018840 -22.586321 -6.263255 -15.377737 40.961283 -0.845998 -2.135439 -11.029477 -3.177921 7.295300 0.000000 0.000000 0.000000 11.494553 8.948601 -0.050803 -1.488115 -21.325621 1.037233 17.533248 5.929963 -2.183159 8.969350 3.699983 -1.648747 0.000000 0.000000 0.000000 3.065989 4.836388 -1.498153 -1.754546 -0.095368 0.743549 0.000000 0.000000 0.000000 -1.172307 6.548402 -1.592328 -1.706332 -4.944190 0.973406 -16.517236 10.047152 -55.596541 -8.197197 -36.701192 -8.104909 0.000000 0.000000 0.000000 3.098365 1.867247 -2.688038 0.599523 -4.024602 3.797114 35.625157 38.313471 28.227268 21.950428 47.814849 -2.287784 0.000000 0.000000 0.000000 
8.284316 89.959892 1.727154 0.000000 0.000000 0.000000 9.305281 -20.967310 0.195294 -30.258442 6.512256 14.734810 39.627371 5.739502 -1.898064 -11.358839 6.393650 -4.453195 0.000000 0.000000 0.000000 6.276456 -5.099380 0.031562 -22.373367 -6.353868 -15.403127 39.613157 -0.450531 -1.869019 -12.047935 -3.030470 7.963616 0.000000 0.000000 0.000000 11.441536 8.723451 -0.012782 -1.551637 -21.031744 0.747130 17.448442 5.941694 -2.062825 8.871208 3.702933 -1.547722 0.000000 0.000000 0.000000 2.903758 4.852746 -1.540020 -1.799950 -0.040821 0.655630 0.000000 0.000000 0.000000 -1.243939 6.514829 -1.506781 -1.759887 -4.858647 0.996471 -16.304783 9.924944 -55.280058 -7.903177 -36.364480 -7.976597 0.000000 0.000000 0.000000 3.084291 1.935265 -2.655563 0.651404 -3.479556 3.688176 35.115956 37.145219 28.966211 21.238470 46.099559 -1.728114 0.000000 0.000000 0.000000 
